<?xml version="1.0" encoding="UTF-8" standalone="no"?>
<!DOCTYPE svg PUBLIC "-//W3C//DTD SVG 1.1//EN" "http://www.w3.org/Graphics/SVG/1.1/DTD/svg11.dtd">
<svg version="1.1" xmlns="http://www.w3.org/2000/svg" xmlns:xlink="http://www.w3.org/1999/xlink" preserveAspectRatio="xMidYMid meet" viewBox="0 0 640 640" width="640" height="640"><defs><path d="M561.78 248.89C573.56 248.89 583.11 239.34 583.11 227.56C583.11 215.77 573.56 206.22 561.78 206.22C513.42 206.22 126.58 206.22 78.22 206.22C66.44 206.22 56.89 215.77 56.89 227.56C56.89 239.34 66.44 248.89 78.22 248.89C79.17 248.89 83.91 248.89 92.44 248.89C169.24 248.89 211.91 248.89 220.44 248.89C236.15 248.89 248.89 261.62 248.89 277.33C248.89 293.04 236.15 305.78 220.44 305.78C206.22 305.78 92.44 305.78 78.22 305.78C35.02 305.78 0 270.76 0 227.56C0 184.35 35.02 149.33 78.22 149.33C126.58 149.33 513.42 149.33 561.78 149.33C604.98 149.33 640 184.35 640 227.56C640 270.76 604.98 305.78 561.78 305.78C544.71 305.78 408.18 305.78 391.11 305.78C367.55 305.78 348.44 324.88 348.44 348.44C348.44 359.82 348.44 450.84 348.44 462.22C348.44 477.93 335.71 490.67 320 490.67C304.29 490.67 291.56 477.93 291.56 462.22C291.56 450.84 291.56 359.82 291.56 348.44C291.56 293.46 336.13 248.89 391.11 248.89C425.24 248.89 544.71 248.89 561.78 248.89Z" id="a1aalycS4O"></path><linearGradient id="gradientd2EIZHzFN" gradientUnits="userSpaceOnUse" x1="612.13" y1="492.78" x2="236.94" y2="88.02"><stop style="stop-color: #8a0217;stop-opacity: 1" offset="0%"></stop><stop style="stop-color: #f00036;stop-opacity: 1" offset="100%"></stop></linearGradient></defs><g><g><g><use xlink:href="#a1aalycS4O" opacity="1" fill="url(#gradientd2EIZHzFN)"></use><g><use xlink:href="#a1aalycS4O" opacity="1" fill-opacity="0" stroke="#000000" stroke-width="0" stroke-opacity="1"></use></g></g></g></g></svg>